<svg width="240" height="240" xmlns="http://www.w3.org/2000/svg">

 <g>
  <title>background</title>
  <rect height="24" width="24" y="-1" x="-1" fill="none" id="canvas_background"/>
 </g>
 <g>
  <title fill="#2f5f9e">Layer 1</title>
  <path d="m336.399994,292.899994c-21.200012,1.5 -49.700012,2.399994 -80.199982,2.399994c-30.500015,0 -58.900009,-0.799988 -80.200012,-2.399994c-17.300003,-1.200012 -27.300003,-2.700012 -33.300003,-4.5c0.600006,25.799988 1.800003,51.699982 3.5,78c0,4.699982 1.800003,9.299988 5.300003,12.899994c1.199997,1.200012 2.5,1.799988 3.899994,2.100006l0,25.399994c0,5.299988 4.300003,9.600006 9.600006,9.600006l27,0c5.300003,0 9.600006,-4.300018 9.600006,-9.600006l0,-25.399994l108.399994,0l0,25.399994c0,5.299988 4.299988,9.600006 9.600006,9.600006l27,0c5.299988,0 9.600006,-4.300018 9.600006,-9.600006l0,-25.399994c1.399994,-0.300018 2.699982,-0.899994 3.899994,-2.100006c3.5,-3.600006 5.299988,-8.200012 5.299988,-12.899994c1.800018,-26.300018 2.899994,-52.200012 3.5,-77.899994c-5.600006,1.700012 -15.600006,3.200012 -32.5,4.399994zm-122.699997,52.600006c-0.099991,5.399994 -4.199997,9.299988 -9.099991,9c-10.400009,-0.5 -15.300003,-0.899994 -26.200012,-1.700012c-5.099991,-0.399994 -10.299988,-3.799988 -10.899994,-9.299988c-0.300003,-2.200012 -0.399994,-3.399994 -0.600006,-5.799988c-0.399994,-5.800018 4.200012,-9.900024 9.600006,-9.600006c11.199997,0.799988 16.800003,1.100006 28.100006,1.600006c5.299988,0.199982 9.399994,4.699982 9.299988,10.199982c-0.099991,2.300018 -0.199997,3.399994 -0.199997,5.600006zm131.699997,-3.100006c-0.300018,5.299988 -5.700012,10 -10.899994,10.399994c-11,0.799988 -16.100006,1.100006 -26.799988,1.700012c-5.100006,0.299988 -9.200012,-3.900024 -9.300018,-9.200012c0,-2.200012 -0.100006,-3.299988 -0.100006,-5.5c-0.200012,-5.299988 3.899994,-9.799988 9.200012,-10c11.199982,-0.5 16.899994,-0.799988 28.100006,-1.600006c5.299988,-0.399994 10,3.600006 10,8.899994c0,2.100037 0,3.200012 -0.200012,5.300018z" fill="#2f5f9e" id="svg_2"/>
  <path d="m398.799988,135.699997l-7.100006,0c-5,0 -9.100006,3.900009 -9.600006,8.800003l-15.5,0c-0.299988,-5.5 -0.599976,-11 -1,-16.599998l0,-1.599998c-41.399994,-41.100006 -178.099991,-41.100006 -219.399979,0l0,1.599998c-0.400009,5.599998 -0.700012,11.099998 -1,16.599998l-15.5,0c-0.400009,-4.899994 -4.500008,-8.800003 -9.600006,-8.800003l-7.099998,0c-5.300003,0 -9.600006,4.300003 -9.600006,9.600006l0,50.800003c0,5.299988 4.300003,9.599991 9.600006,9.599991l7.099998,0c5.299995,0 9.600006,-4.300003 9.600006,-9.599991l0,-44.400009l15,0c-2.300003,41.900009 -3,83 -2.300003,124.400009c0.599991,0.399994 1.199997,0.899994 1.5,1.5c18.199997,9.199982 206,9.199982 224.199982,0c0.300018,-0.5 0.700012,-0.899994 1.200012,-1.300018c0.700012,-41.399994 -0.100006,-82.599991 -2.299988,-124.699982l15,0l0,44.399994c0,5.300003 4.299988,9.600006 9.599976,9.600006l7.100006,0c5.300018,0 9.600006,-4.300003 9.600006,-9.600006l0,-50.800003c0.100006,-5.099991 -4.199982,-9.5 -9.5,-9.5zm-147.199982,126.300003l-71,1.200012l43.900009,-48.100006l0,26c0,2 1.599991,3.599991 3.599991,3.599991s3.600006,-1.599991 3.600006,-3.599991l0,-70.300003c0,-2 -1.600006,-3.600006 -3.600006,-3.600006s-3.599991,1.600006 -3.599991,3.600006l0,38.899994l-55.300003,53.599991l-14.900009,0.200012l0,-118.100006c0,-5.300003 4.300003,-9.600006 9.600006,-9.600006l87.699997,0l0,126.200012zm108,2l-8.5,-1.799988c-4.799988,-4.5 -11.899994,-7.700012 -20,-9.800018l-44,-42.699997l0,-38.899994c0,-2 -1.600006,-3.600006 -3.600006,-3.600006c-2,0 -3.599976,1.600006 -3.599976,3.600006l0,70.300003c0,2 1.599976,3.599991 3.599976,3.599991c2,0 3.600006,-1.599991 3.600006,-3.599991l0,-26l32.100006,35.199997c-19.5,-2.100006 -41.200012,1.599991 -52,11.499985l-4.900024,0.100006l0,-126.199997l87.700012,0c5.299988,0 9.600006,4.300003 9.600006,9.600006l0,118.699997z" fill="#2f5f9e" id="svg_3"/>
 </g>
</svg>